<mxfile host="65bd71144e">
    <diagram id="3CGOplF_25yKbEWaD3JT" name="ca">
        <mxGraphModel dx="1855" dy="1674" grid="0" gridSize="10" guides="1" tooltips="1" connect="1" arrows="1" fold="1" page="1" pageScale="1" pageWidth="850" pageHeight="1100" math="0" shadow="0">
            <root>
                <mxCell id="0"/>
                <mxCell id="1" parent="0"/>
                <mxCell id="218" value="Biểu đồ ca" style="shape=umlFrame;whiteSpace=wrap;html=1;width=75;height=22;boundedLbl=1;verticalAlign=middle;align=left;spacingLeft=5;" parent="1" vertex="1">
                    <mxGeometry x="-195" y="-114" width="1082" height="1118" as="geometry"/>
                </mxCell>
                <mxCell id="263" value="" style="rounded=0;whiteSpace=wrap;html=1;" parent="1" vertex="1">
                    <mxGeometry x="-16" y="-70" width="672" height="1028" as="geometry"/>
                </mxCell>
                <mxCell id="90" value="Quản trị viên" style="shape=umlActor;verticalLabelPosition=bottom;verticalAlign=top;html=1;" parent="1" vertex="1">
                    <mxGeometry x="-118" y="490" width="30" height="60" as="geometry"/>
                </mxCell>
                <mxCell id="91" value="Xem thông tin phòng khám" style="ellipse;whiteSpace=wrap;html=1;" parent="1" vertex="1">
                    <mxGeometry x="66" y="-17" width="140" height="70" as="geometry"/>
                </mxCell>
                <mxCell id="92" value="Quản lý thông tin phòng khám" style="ellipse;whiteSpace=wrap;html=1;" parent="1" vertex="1">
                    <mxGeometry x="66" y="417" width="140" height="70" as="geometry"/>
                </mxCell>
                <mxCell id="93" value="" style="endArrow=none;startArrow=none;endFill=0;startFill=0;endSize=8;html=1;verticalAlign=bottom;labelBackgroundColor=none;strokeWidth=3;exitX=1;exitY=0.3333333333333333;exitDx=0;exitDy=0;exitPerimeter=0;entryX=0;entryY=0.5;entryDx=0;entryDy=0;" parent="1" source="219" target="91" edge="1">
                    <mxGeometry width="160" relative="1" as="geometry">
                        <mxPoint x="68" y="130" as="sourcePoint"/>
                        <mxPoint x="211" y="231" as="targetPoint"/>
                    </mxGeometry>
                </mxCell>
                <mxCell id="94" value="" style="endArrow=none;startArrow=none;endFill=0;startFill=0;endSize=8;html=1;verticalAlign=bottom;labelBackgroundColor=none;strokeWidth=3;exitX=1;exitY=0.3333333333333333;exitDx=0;exitDy=0;exitPerimeter=0;entryX=0;entryY=0.5;entryDx=0;entryDy=0;" parent="1" source="90" target="92" edge="1">
                    <mxGeometry width="160" relative="1" as="geometry">
                        <mxPoint x="68" y="130" as="sourcePoint"/>
                        <mxPoint x="337" y="242" as="targetPoint"/>
                    </mxGeometry>
                </mxCell>
                <mxCell id="219" value="Khách" style="shape=umlActor;verticalLabelPosition=bottom;verticalAlign=top;html=1;" parent="1" vertex="1">
                    <mxGeometry x="-118" y="-3" width="30" height="60" as="geometry"/>
                </mxCell>
                <mxCell id="270" value="&lt;font style=&quot;font-size: 24px&quot;&gt;Medicine16&lt;/font&gt;" style="text;html=1;strokeColor=none;fillColor=none;align=center;verticalAlign=middle;whiteSpace=wrap;rounded=0;" parent="1" vertex="1">
                    <mxGeometry x="300" y="-61" width="40" height="20" as="geometry"/>
                </mxCell>
                <mxCell id="e231MXxMTPdDSmjY2rK_-270" value="Quản lý bệnh nhân" style="ellipse;whiteSpace=wrap;html=1;" parent="1" vertex="1">
                    <mxGeometry x="66" y="593" width="140" height="70" as="geometry"/>
                </mxCell>
                <mxCell id="e231MXxMTPdDSmjY2rK_-271" value="" style="endArrow=none;startArrow=none;endFill=0;startFill=0;endSize=8;html=1;verticalAlign=bottom;labelBackgroundColor=none;strokeWidth=3;entryX=0;entryY=0.5;entryDx=0;entryDy=0;exitX=1;exitY=0.3333333333333333;exitDx=0;exitDy=0;exitPerimeter=0;" parent="1" source="90" target="e231MXxMTPdDSmjY2rK_-270" edge="1">
                    <mxGeometry width="160" relative="1" as="geometry">
                        <mxPoint x="-85" y="169" as="sourcePoint"/>
                        <mxPoint x="73" y="179" as="targetPoint"/>
                    </mxGeometry>
                </mxCell>
                <mxCell id="e231MXxMTPdDSmjY2rK_-272" value="Quản lý thông tin nhân viên" style="ellipse;whiteSpace=wrap;html=1;" parent="1" vertex="1">
                    <mxGeometry x="66" y="505" width="140" height="70" as="geometry"/>
                </mxCell>
                <mxCell id="e231MXxMTPdDSmjY2rK_-274" value="Bệnh nhân" style="shape=umlActor;verticalLabelPosition=bottom;verticalAlign=top;html=1;" parent="1" vertex="1">
                    <mxGeometry x="-118" y="190" width="30" height="60" as="geometry"/>
                </mxCell>
                <mxCell id="e231MXxMTPdDSmjY2rK_-279" value="Đổi mật khẩu" style="ellipse;whiteSpace=wrap;html=1;" parent="1" vertex="1">
                    <mxGeometry x="66" y="155" width="140" height="70" as="geometry"/>
                </mxCell>
                <mxCell id="e231MXxMTPdDSmjY2rK_-280" value="Đăng nhập" style="ellipse;whiteSpace=wrap;html=1;" parent="1" vertex="1">
                    <mxGeometry x="66" y="330" width="140" height="70" as="geometry"/>
                </mxCell>
                <mxCell id="e231MXxMTPdDSmjY2rK_-281" value="Xem lịch sử khám" style="ellipse;whiteSpace=wrap;html=1;" parent="1" vertex="1">
                    <mxGeometry x="66" y="240" width="140" height="70" as="geometry"/>
                </mxCell>
                <mxCell id="e231MXxMTPdDSmjY2rK_-282" value="Xem hóa đơn" style="ellipse;whiteSpace=wrap;html=1;" parent="1" vertex="1">
                    <mxGeometry x="66" y="72" width="140" height="70" as="geometry"/>
                </mxCell>
                <mxCell id="e231MXxMTPdDSmjY2rK_-283" value="" style="endArrow=none;startArrow=none;endFill=0;startFill=0;endSize=8;html=1;verticalAlign=bottom;labelBackgroundColor=none;strokeWidth=3;exitX=1;exitY=0.3333333333333333;exitDx=0;exitDy=0;exitPerimeter=0;entryX=0;entryY=0.5;entryDx=0;entryDy=0;" parent="1" source="e231MXxMTPdDSmjY2rK_-274" target="e231MXxMTPdDSmjY2rK_-279" edge="1">
                    <mxGeometry width="160" relative="1" as="geometry">
                        <mxPoint x="-78" y="27" as="sourcePoint"/>
                        <mxPoint x="76" y="28" as="targetPoint"/>
                    </mxGeometry>
                </mxCell>
                <mxCell id="e231MXxMTPdDSmjY2rK_-284" value="" style="endArrow=none;startArrow=none;endFill=0;startFill=0;endSize=8;html=1;verticalAlign=bottom;labelBackgroundColor=none;strokeWidth=3;exitX=1;exitY=0.3333333333333333;exitDx=0;exitDy=0;exitPerimeter=0;entryX=0;entryY=0.5;entryDx=0;entryDy=0;" parent="1" source="e231MXxMTPdDSmjY2rK_-274" target="e231MXxMTPdDSmjY2rK_-280" edge="1">
                    <mxGeometry width="160" relative="1" as="geometry">
                        <mxPoint x="-68" y="37" as="sourcePoint"/>
                        <mxPoint x="86" y="38" as="targetPoint"/>
                    </mxGeometry>
                </mxCell>
                <mxCell id="e231MXxMTPdDSmjY2rK_-285" value="" style="endArrow=none;startArrow=none;endFill=0;startFill=0;endSize=8;html=1;verticalAlign=bottom;labelBackgroundColor=none;strokeWidth=3;exitX=1;exitY=0.3333333333333333;exitDx=0;exitDy=0;exitPerimeter=0;entryX=0;entryY=0.5;entryDx=0;entryDy=0;" parent="1" source="e231MXxMTPdDSmjY2rK_-274" target="e231MXxMTPdDSmjY2rK_-281" edge="1">
                    <mxGeometry width="160" relative="1" as="geometry">
                        <mxPoint x="-78" y="191" as="sourcePoint"/>
                        <mxPoint x="81" y="201" as="targetPoint"/>
                    </mxGeometry>
                </mxCell>
                <mxCell id="e231MXxMTPdDSmjY2rK_-286" value="" style="endArrow=none;startArrow=none;endFill=0;startFill=0;endSize=8;html=1;verticalAlign=bottom;labelBackgroundColor=none;strokeWidth=3;exitX=1;exitY=0.3333333333333333;exitDx=0;exitDy=0;exitPerimeter=0;entryX=0;entryY=0.5;entryDx=0;entryDy=0;" parent="1" source="e231MXxMTPdDSmjY2rK_-274" target="e231MXxMTPdDSmjY2rK_-282" edge="1">
                    <mxGeometry width="160" relative="1" as="geometry">
                        <mxPoint x="-68" y="201" as="sourcePoint"/>
                        <mxPoint x="91" y="211" as="targetPoint"/>
                    </mxGeometry>
                </mxCell>
                <mxCell id="e231MXxMTPdDSmjY2rK_-290" value="Y tá" style="shape=umlActor;verticalLabelPosition=bottom;verticalAlign=top;html=1;" parent="1" vertex="1">
                    <mxGeometry x="775" y="95" width="30" height="60" as="geometry"/>
                </mxCell>
                <mxCell id="e231MXxMTPdDSmjY2rK_-291" value="Quản lý phiếu hẹn" style="ellipse;whiteSpace=wrap;html=1;" parent="1" vertex="1">
                    <mxGeometry x="427" y="-17" width="140" height="70" as="geometry"/>
                </mxCell>
                <mxCell id="e231MXxMTPdDSmjY2rK_-293" value="Lập phiếu khám" style="ellipse;whiteSpace=wrap;html=1;" parent="1" vertex="1">
                    <mxGeometry x="427" y="72" width="140" height="70" as="geometry"/>
                </mxCell>
                <mxCell id="e231MXxMTPdDSmjY2rK_-294" value="Thống kê" style="ellipse;whiteSpace=wrap;html=1;" parent="1" vertex="1">
                    <mxGeometry x="427" y="155" width="140" height="70" as="geometry"/>
                </mxCell>
                <mxCell id="e231MXxMTPdDSmjY2rK_-295" value="Thu tiền" style="ellipse;whiteSpace=wrap;html=1;" parent="1" vertex="1">
                    <mxGeometry x="427" y="240" width="140" height="70" as="geometry"/>
                </mxCell>
                <mxCell id="e231MXxMTPdDSmjY2rK_-297" value="" style="endArrow=none;startArrow=none;endFill=0;startFill=0;endSize=8;html=1;verticalAlign=bottom;labelBackgroundColor=none;strokeWidth=3;exitX=1;exitY=0.5;exitDx=0;exitDy=0;entryX=0;entryY=0.3333333333333333;entryDx=0;entryDy=0;entryPerimeter=0;" parent="1" source="e231MXxMTPdDSmjY2rK_-291" target="e231MXxMTPdDSmjY2rK_-290" edge="1">
                    <mxGeometry width="160" relative="1" as="geometry">
                        <mxPoint x="-78" y="199" as="sourcePoint"/>
                        <mxPoint x="76" y="115" as="targetPoint"/>
                    </mxGeometry>
                </mxCell>
                <mxCell id="e231MXxMTPdDSmjY2rK_-298" value="" style="endArrow=none;startArrow=none;endFill=0;startFill=0;endSize=8;html=1;verticalAlign=bottom;labelBackgroundColor=none;strokeWidth=3;exitX=1;exitY=0.5;exitDx=0;exitDy=0;entryX=0;entryY=0.3333333333333333;entryDx=0;entryDy=0;entryPerimeter=0;" parent="1" source="e231MXxMTPdDSmjY2rK_-293" target="e231MXxMTPdDSmjY2rK_-290" edge="1">
                    <mxGeometry width="160" relative="1" as="geometry">
                        <mxPoint x="440" y="28" as="sourcePoint"/>
                        <mxPoint x="612" y="25" as="targetPoint"/>
                    </mxGeometry>
                </mxCell>
                <mxCell id="e231MXxMTPdDSmjY2rK_-299" value="" style="endArrow=none;startArrow=none;endFill=0;startFill=0;endSize=8;html=1;verticalAlign=bottom;labelBackgroundColor=none;strokeWidth=3;exitX=1;exitY=0.5;exitDx=0;exitDy=0;entryX=0;entryY=0.3333333333333333;entryDx=0;entryDy=0;entryPerimeter=0;" parent="1" source="e231MXxMTPdDSmjY2rK_-294" target="e231MXxMTPdDSmjY2rK_-290" edge="1">
                    <mxGeometry width="160" relative="1" as="geometry">
                        <mxPoint x="450" y="38" as="sourcePoint"/>
                        <mxPoint x="622" y="35" as="targetPoint"/>
                    </mxGeometry>
                </mxCell>
                <mxCell id="e231MXxMTPdDSmjY2rK_-300" value="" style="endArrow=none;startArrow=none;endFill=0;startFill=0;endSize=8;html=1;verticalAlign=bottom;labelBackgroundColor=none;strokeWidth=3;entryX=0;entryY=0.3333333333333333;entryDx=0;entryDy=0;entryPerimeter=0;exitX=1;exitY=0.5;exitDx=0;exitDy=0;" parent="1" source="e231MXxMTPdDSmjY2rK_-295" target="e231MXxMTPdDSmjY2rK_-290" edge="1">
                    <mxGeometry width="160" relative="1" as="geometry">
                        <mxPoint x="460" y="48" as="sourcePoint"/>
                        <mxPoint x="632" y="45" as="targetPoint"/>
                    </mxGeometry>
                </mxCell>
                <mxCell id="e231MXxMTPdDSmjY2rK_-301" value="Bác sĩ" style="shape=umlActor;verticalLabelPosition=bottom;verticalAlign=top;html=1;" parent="1" vertex="1">
                    <mxGeometry x="775" y="396" width="30" height="60" as="geometry"/>
                </mxCell>
                <mxCell id="e231MXxMTPdDSmjY2rK_-302" value="Xem lịch khám" style="ellipse;whiteSpace=wrap;html=1;" parent="1" vertex="1">
                    <mxGeometry x="427" y="330" width="140" height="70" as="geometry"/>
                </mxCell>
                <mxCell id="e231MXxMTPdDSmjY2rK_-303" value="Tìm kiếm bệnh nhân" style="ellipse;whiteSpace=wrap;html=1;" parent="1" vertex="1">
                    <mxGeometry x="427" y="417" width="140" height="70" as="geometry"/>
                </mxCell>
                <mxCell id="e231MXxMTPdDSmjY2rK_-304" value="Kê toa, lập hóa đơn" style="ellipse;whiteSpace=wrap;html=1;" parent="1" vertex="1">
                    <mxGeometry x="427" y="505" width="140" height="70" as="geometry"/>
                </mxCell>
                <mxCell id="e231MXxMTPdDSmjY2rK_-305" value="In hóa đơn" style="ellipse;whiteSpace=wrap;html=1;" parent="1" vertex="1">
                    <mxGeometry x="234" y="505" width="140" height="70" as="geometry"/>
                </mxCell>
                <mxCell id="e231MXxMTPdDSmjY2rK_-306" value="&amp;lt;&amp;lt;extend&amp;gt;&amp;gt;" style="html=1;verticalAlign=bottom;labelBackgroundColor=none;endArrow=open;endFill=0;dashed=1;exitX=1;exitY=0.5;exitDx=0;exitDy=0;entryX=0;entryY=0.5;entryDx=0;entryDy=0;" parent="1" source="e231MXxMTPdDSmjY2rK_-305" target="e231MXxMTPdDSmjY2rK_-304" edge="1">
                    <mxGeometry width="160" relative="1" as="geometry">
                        <mxPoint x="277" y="565" as="sourcePoint"/>
                        <mxPoint x="404" y="566" as="targetPoint"/>
                    </mxGeometry>
                </mxCell>
                <mxCell id="e231MXxMTPdDSmjY2rK_-307" value="" style="endArrow=none;startArrow=none;endFill=0;startFill=0;endSize=8;html=1;verticalAlign=bottom;labelBackgroundColor=none;strokeWidth=3;entryX=1;entryY=0.5;entryDx=0;entryDy=0;exitX=0;exitY=0.333;exitDx=0;exitDy=0;exitPerimeter=0;" parent="1" source="e231MXxMTPdDSmjY2rK_-301" target="e231MXxMTPdDSmjY2rK_-302" edge="1">
                    <mxGeometry width="160" relative="1" as="geometry">
                        <mxPoint x="-78" y="199" as="sourcePoint"/>
                        <mxPoint x="76" y="289" as="targetPoint"/>
                    </mxGeometry>
                </mxCell>
                <mxCell id="e231MXxMTPdDSmjY2rK_-308" value="" style="endArrow=none;startArrow=none;endFill=0;startFill=0;endSize=8;html=1;verticalAlign=bottom;labelBackgroundColor=none;strokeWidth=3;entryX=1;entryY=0.5;entryDx=0;entryDy=0;exitX=0;exitY=0.3333333333333333;exitDx=0;exitDy=0;exitPerimeter=0;" parent="1" source="e231MXxMTPdDSmjY2rK_-301" target="e231MXxMTPdDSmjY2rK_-303" edge="1">
                    <mxGeometry width="160" relative="1" as="geometry">
                        <mxPoint x="-78" y="458" as="sourcePoint"/>
                        <mxPoint x="73" y="385" as="targetPoint"/>
                    </mxGeometry>
                </mxCell>
                <mxCell id="e231MXxMTPdDSmjY2rK_-309" value="" style="endArrow=none;startArrow=none;endFill=0;startFill=0;endSize=8;html=1;verticalAlign=bottom;labelBackgroundColor=none;strokeWidth=3;entryX=0.994;entryY=0.453;entryDx=0;entryDy=0;entryPerimeter=0;exitX=0;exitY=0.3333333333333333;exitDx=0;exitDy=0;exitPerimeter=0;" parent="1" source="e231MXxMTPdDSmjY2rK_-301" target="e231MXxMTPdDSmjY2rK_-304" edge="1">
                    <mxGeometry width="160" relative="1" as="geometry">
                        <mxPoint x="789" y="390" as="sourcePoint"/>
                        <mxPoint x="83" y="395" as="targetPoint"/>
                    </mxGeometry>
                </mxCell>
                <mxCell id="e231MXxMTPdDSmjY2rK_-312" value="" style="endArrow=none;startArrow=none;endFill=0;startFill=0;endSize=8;html=1;verticalAlign=bottom;labelBackgroundColor=none;strokeWidth=3;entryX=0;entryY=0.5;entryDx=0;entryDy=0;exitX=1;exitY=0.3333333333333333;exitDx=0;exitDy=0;exitPerimeter=0;" parent="1" source="90" target="e231MXxMTPdDSmjY2rK_-272" edge="1">
                    <mxGeometry width="160" relative="1" as="geometry">
                        <mxPoint x="-78" y="520.0000000000002" as="sourcePoint"/>
                        <mxPoint x="76" y="631" as="targetPoint"/>
                    </mxGeometry>
                </mxCell>
                <mxCell id="e231MXxMTPdDSmjY2rK_-318" value="Dược sĩ" style="shape=umlActor;verticalLabelPosition=bottom;verticalAlign=top;html=1;" parent="1" vertex="1">
                    <mxGeometry x="775" y="607" width="30" height="60" as="geometry"/>
                </mxCell>
                <mxCell id="e231MXxMTPdDSmjY2rK_-322" value="Quản lý kho" style="ellipse;whiteSpace=wrap;html=1;" parent="1" vertex="1">
                    <mxGeometry x="427" y="593" width="140" height="70" as="geometry"/>
                </mxCell>
                <mxCell id="e231MXxMTPdDSmjY2rK_-326" value="" style="endArrow=none;startArrow=none;endFill=0;startFill=0;endSize=8;html=1;verticalAlign=bottom;labelBackgroundColor=none;strokeWidth=3;entryX=1;entryY=0.5;entryDx=0;entryDy=0;exitX=0;exitY=0.3333333333333333;exitDx=0;exitDy=0;exitPerimeter=0;" parent="1" source="e231MXxMTPdDSmjY2rK_-318" target="e231MXxMTPdDSmjY2rK_-322" edge="1">
                    <mxGeometry width="160" relative="1" as="geometry">
                        <mxPoint x="749" y="731" as="sourcePoint"/>
                        <mxPoint x="576" y="658" as="targetPoint"/>
                    </mxGeometry>
                </mxCell>
                <mxCell id="e231MXxMTPdDSmjY2rK_-327" value="Tạo phiếu nhập hàng" style="ellipse;whiteSpace=wrap;html=1;" parent="1" vertex="1">
                    <mxGeometry x="234" y="593" width="140" height="70" as="geometry"/>
                </mxCell>
                <mxCell id="e231MXxMTPdDSmjY2rK_-328" value="Tạo phiếu xuất hàng" style="ellipse;whiteSpace=wrap;html=1;" parent="1" vertex="1">
                    <mxGeometry x="234" y="679" width="140" height="70" as="geometry"/>
                </mxCell>
                <mxCell id="e231MXxMTPdDSmjY2rK_-329" value="Kiểm kê hàng hóa" style="ellipse;whiteSpace=wrap;html=1;" parent="1" vertex="1">
                    <mxGeometry x="234" y="765" width="140" height="70" as="geometry"/>
                </mxCell>
                <mxCell id="e231MXxMTPdDSmjY2rK_-330" value="Tạo phiếu trả hàng" style="ellipse;whiteSpace=wrap;html=1;" parent="1" vertex="1">
                    <mxGeometry x="234" y="851" width="140" height="70" as="geometry"/>
                </mxCell>
                <mxCell id="e231MXxMTPdDSmjY2rK_-331" value="&amp;lt;&amp;lt;include&amp;gt;&amp;gt;" style="html=1;verticalAlign=bottom;labelBackgroundColor=none;endArrow=open;endFill=0;dashed=1;exitX=0;exitY=0.5;exitDx=0;exitDy=0;entryX=1;entryY=0.5;entryDx=0;entryDy=0;entryPerimeter=0;" parent="1" source="e231MXxMTPdDSmjY2rK_-322" target="e231MXxMTPdDSmjY2rK_-327" edge="1">
                    <mxGeometry width="160" relative="1" as="geometry">
                        <mxPoint x="391" y="703" as="sourcePoint"/>
                        <mxPoint x="551" y="703" as="targetPoint"/>
                    </mxGeometry>
                </mxCell>
                <mxCell id="e231MXxMTPdDSmjY2rK_-332" value="&amp;lt;&amp;lt;include&amp;gt;&amp;gt;" style="html=1;verticalAlign=bottom;labelBackgroundColor=none;endArrow=open;endFill=0;dashed=1;exitX=0;exitY=1;exitDx=0;exitDy=0;entryX=1;entryY=0.5;entryDx=0;entryDy=0;" parent="1" source="e231MXxMTPdDSmjY2rK_-322" target="e231MXxMTPdDSmjY2rK_-328" edge="1">
                    <mxGeometry width="160" relative="1" as="geometry">
                        <mxPoint x="465" y="715" as="sourcePoint"/>
                        <mxPoint x="625" y="715" as="targetPoint"/>
                    </mxGeometry>
                </mxCell>
                <mxCell id="e231MXxMTPdDSmjY2rK_-333" value="&amp;lt;&amp;lt;include&amp;gt;&amp;gt;" style="html=1;verticalAlign=bottom;labelBackgroundColor=none;endArrow=open;endFill=0;dashed=1;exitX=0.5;exitY=1;exitDx=0;exitDy=0;entryX=1;entryY=0.5;entryDx=0;entryDy=0;" parent="1" source="e231MXxMTPdDSmjY2rK_-322" target="e231MXxMTPdDSmjY2rK_-329" edge="1">
                    <mxGeometry width="160" relative="1" as="geometry">
                        <mxPoint x="446" y="761" as="sourcePoint"/>
                        <mxPoint x="606" y="761" as="targetPoint"/>
                    </mxGeometry>
                </mxCell>
                <mxCell id="e231MXxMTPdDSmjY2rK_-334" value="&amp;lt;&amp;lt;include&amp;gt;&amp;gt;" style="html=1;verticalAlign=bottom;labelBackgroundColor=none;endArrow=open;endFill=0;dashed=1;entryX=1;entryY=0.5;entryDx=0;entryDy=0;exitX=1;exitY=1;exitDx=0;exitDy=0;" parent="1" source="e231MXxMTPdDSmjY2rK_-322" target="e231MXxMTPdDSmjY2rK_-330" edge="1">
                    <mxGeometry width="160" relative="1" as="geometry">
                        <mxPoint x="531" y="663" as="sourcePoint"/>
                        <mxPoint x="644" y="818" as="targetPoint"/>
                    </mxGeometry>
                </mxCell>
                <mxCell id="275" value="" style="edgeStyle=none;html=1;endSize=12;endArrow=block;endFill=0;exitX=0.5;exitY=0;exitDx=0;exitDy=0;exitPerimeter=0;" parent="1" source="e231MXxMTPdDSmjY2rK_-274" edge="1">
                    <mxGeometry width="160" relative="1" as="geometry">
                        <mxPoint x="-313" y="173" as="sourcePoint"/>
                        <mxPoint x="-103" y="80" as="targetPoint"/>
                    </mxGeometry>
                </mxCell>
                <mxCell id="276" value="" style="edgeStyle=none;html=1;endSize=12;endArrow=block;endFill=0;exitX=0.5;exitY=0;exitDx=0;exitDy=0;exitPerimeter=0;" parent="1" source="90" edge="1">
                    <mxGeometry width="160" relative="1" as="geometry">
                        <mxPoint x="-93" y="200" as="sourcePoint"/>
                        <mxPoint x="-103" y="275" as="targetPoint"/>
                    </mxGeometry>
                </mxCell>
                <mxCell id="278" value="" style="edgeStyle=none;html=1;endSize=12;endArrow=block;endFill=0;exitX=0.5;exitY=0;exitDx=0;exitDy=0;exitPerimeter=0;" parent="1" source="e231MXxMTPdDSmjY2rK_-301" edge="1">
                    <mxGeometry width="160" relative="1" as="geometry">
                        <mxPoint x="718" y="235" as="sourcePoint"/>
                        <mxPoint x="790" y="180" as="targetPoint"/>
                    </mxGeometry>
                </mxCell>
            </root>
        </mxGraphModel>
    </diagram>
    <diagram id="HT-kcf05mH7y3KA-HaJt" name="Nháp">
        <mxGraphModel dx="1855" dy="574" grid="0" gridSize="10" guides="1" tooltips="1" connect="1" arrows="1" fold="1" page="1" pageScale="1" pageWidth="850" pageHeight="1100" math="0" shadow="0">
            <root>
                <mxCell id="GfGqxMvwCuDYOrnApSIa-0"/>
                <mxCell id="GfGqxMvwCuDYOrnApSIa-1" parent="GfGqxMvwCuDYOrnApSIa-0"/>
                <mxCell id="KA0_QR6ETRWi7qy15WYJ-0" value="&lt;span style=&quot;font-weight: 700 ; text-align: center&quot;&gt;Biểu đồ ca&lt;/span&gt;" style="shape=umlFrame;whiteSpace=wrap;html=1;width=79;height=24;boundedLbl=1;verticalAlign=middle;align=left;spacingLeft=5;" parent="GfGqxMvwCuDYOrnApSIa-1" vertex="1">
                    <mxGeometry x="-69" y="348" width="617" height="527" as="geometry"/>
                </mxCell>
                <mxCell id="KA0_QR6ETRWi7qy15WYJ-1" value="" style="rounded=0;whiteSpace=wrap;html=1;" parent="GfGqxMvwCuDYOrnApSIa-1" vertex="1">
                    <mxGeometry x="98" y="370" width="416" height="471" as="geometry"/>
                </mxCell>
                <mxCell id="KA0_QR6ETRWi7qy15WYJ-2" value="Nhân viên" style="shape=umlActor;verticalLabelPosition=bottom;verticalAlign=top;html=1;" parent="GfGqxMvwCuDYOrnApSIa-1" vertex="1">
                    <mxGeometry x="-34" y="490" width="30" height="60" as="geometry"/>
                </mxCell>
                <mxCell id="KA0_QR6ETRWi7qy15WYJ-3" value="Quản trị viên" style="shape=umlActor;verticalLabelPosition=bottom;verticalAlign=top;html=1;" parent="GfGqxMvwCuDYOrnApSIa-1" vertex="1">
                    <mxGeometry x="-34" y="671" width="30" height="60" as="geometry"/>
                </mxCell>
                <mxCell id="KA0_QR6ETRWi7qy15WYJ-4" value="Đăng ký nhân viên mới" style="ellipse;whiteSpace=wrap;html=1;" parent="GfGqxMvwCuDYOrnApSIa-1" vertex="1">
                    <mxGeometry x="149" y="404" width="140" height="70" as="geometry"/>
                </mxCell>
                <mxCell id="KA0_QR6ETRWi7qy15WYJ-5" value="Quản lý nhân viên" style="ellipse;whiteSpace=wrap;html=1;" parent="GfGqxMvwCuDYOrnApSIa-1" vertex="1">
                    <mxGeometry x="149" y="486" width="140" height="70" as="geometry"/>
                </mxCell>
                <mxCell id="KA0_QR6ETRWi7qy15WYJ-6" value="Quản lý tài khoản" style="ellipse;whiteSpace=wrap;html=1;" parent="GfGqxMvwCuDYOrnApSIa-1" vertex="1">
                    <mxGeometry x="149" y="566" width="140" height="70" as="geometry"/>
                </mxCell>
                <mxCell id="KA0_QR6ETRWi7qy15WYJ-7" value="" style="endArrow=none;startArrow=none;endFill=0;startFill=0;endSize=8;html=1;verticalAlign=bottom;labelBackgroundColor=none;strokeWidth=3;exitX=1;exitY=0.3333333333333333;exitDx=0;exitDy=0;exitPerimeter=0;entryX=0;entryY=0.5;entryDx=0;entryDy=0;" parent="GfGqxMvwCuDYOrnApSIa-1" source="KA0_QR6ETRWi7qy15WYJ-2" target="KA0_QR6ETRWi7qy15WYJ-4" edge="1">
                    <mxGeometry width="160" relative="1" as="geometry">
                        <mxPoint x="248" y="342" as="sourcePoint"/>
                        <mxPoint x="408" y="342" as="targetPoint"/>
                    </mxGeometry>
                </mxCell>
                <mxCell id="KA0_QR6ETRWi7qy15WYJ-8" value="" style="endArrow=none;startArrow=none;endFill=0;startFill=0;endSize=8;html=1;verticalAlign=bottom;labelBackgroundColor=none;strokeWidth=3;exitX=1;exitY=0.3333333333333333;exitDx=0;exitDy=0;exitPerimeter=0;entryX=0;entryY=0.5;entryDx=0;entryDy=0;" parent="GfGqxMvwCuDYOrnApSIa-1" source="KA0_QR6ETRWi7qy15WYJ-2" target="KA0_QR6ETRWi7qy15WYJ-5" edge="1">
                    <mxGeometry width="160" relative="1" as="geometry">
                        <mxPoint x="248" y="342" as="sourcePoint"/>
                        <mxPoint x="408" y="342" as="targetPoint"/>
                    </mxGeometry>
                </mxCell>
                <mxCell id="KA0_QR6ETRWi7qy15WYJ-9" value="" style="endArrow=none;startArrow=none;endFill=0;startFill=0;endSize=8;html=1;verticalAlign=bottom;labelBackgroundColor=none;strokeWidth=3;exitX=1;exitY=0.3333333333333333;exitDx=0;exitDy=0;exitPerimeter=0;entryX=0;entryY=0.5;entryDx=0;entryDy=0;" parent="GfGqxMvwCuDYOrnApSIa-1" source="KA0_QR6ETRWi7qy15WYJ-2" target="KA0_QR6ETRWi7qy15WYJ-6" edge="1">
                    <mxGeometry width="160" relative="1" as="geometry">
                        <mxPoint x="248" y="342" as="sourcePoint"/>
                        <mxPoint x="408" y="342" as="targetPoint"/>
                    </mxGeometry>
                </mxCell>
                <mxCell id="KA0_QR6ETRWi7qy15WYJ-10" value="Thay đổi mật khẩu" style="ellipse;whiteSpace=wrap;html=1;" parent="GfGqxMvwCuDYOrnApSIa-1" vertex="1">
                    <mxGeometry x="357" y="570.5" width="140" height="70" as="geometry"/>
                </mxCell>
                <mxCell id="KA0_QR6ETRWi7qy15WYJ-11" value="&amp;lt;&amp;lt;extend&amp;gt;&amp;gt;" style="html=1;verticalAlign=bottom;labelBackgroundColor=none;endArrow=open;endFill=0;dashed=1;exitX=0;exitY=0.5;exitDx=0;exitDy=0;entryX=0.993;entryY=0.588;entryDx=0;entryDy=0;entryPerimeter=0;" parent="GfGqxMvwCuDYOrnApSIa-1" source="KA0_QR6ETRWi7qy15WYJ-10" target="KA0_QR6ETRWi7qy15WYJ-6" edge="1">
                    <mxGeometry width="160" relative="1" as="geometry">
                        <mxPoint x="248" y="467" as="sourcePoint"/>
                        <mxPoint x="408" y="467" as="targetPoint"/>
                    </mxGeometry>
                </mxCell>
                <mxCell id="KA0_QR6ETRWi7qy15WYJ-12" value="Xóa tài khoản nhân viên" style="ellipse;whiteSpace=wrap;html=1;" parent="GfGqxMvwCuDYOrnApSIa-1" vertex="1">
                    <mxGeometry x="151.5" y="657" width="140" height="70" as="geometry"/>
                </mxCell>
                <mxCell id="KA0_QR6ETRWi7qy15WYJ-13" value="Đặt lại mật khẩu đăng nhập" style="ellipse;whiteSpace=wrap;html=1;" parent="GfGqxMvwCuDYOrnApSIa-1" vertex="1">
                    <mxGeometry x="151.5" y="744" width="140" height="70" as="geometry"/>
                </mxCell>
                <mxCell id="KA0_QR6ETRWi7qy15WYJ-14" value="" style="endArrow=none;startArrow=none;endFill=0;startFill=0;endSize=8;html=1;verticalAlign=bottom;labelBackgroundColor=none;strokeWidth=3;exitX=0;exitY=0.5;exitDx=0;exitDy=0;entryX=1;entryY=0.3333333333333333;entryDx=0;entryDy=0;entryPerimeter=0;" parent="GfGqxMvwCuDYOrnApSIa-1" source="KA0_QR6ETRWi7qy15WYJ-12" target="KA0_QR6ETRWi7qy15WYJ-3" edge="1">
                    <mxGeometry width="160" relative="1" as="geometry">
                        <mxPoint x="314" y="474" as="sourcePoint"/>
                        <mxPoint x="474" y="474" as="targetPoint"/>
                    </mxGeometry>
                </mxCell>
                <mxCell id="KA0_QR6ETRWi7qy15WYJ-15" value="" style="endArrow=none;startArrow=none;endFill=0;startFill=0;endSize=8;html=1;verticalAlign=bottom;labelBackgroundColor=none;strokeWidth=3;entryX=1;entryY=0.3333333333333333;entryDx=0;entryDy=0;entryPerimeter=0;exitX=0;exitY=0.5;exitDx=0;exitDy=0;" parent="GfGqxMvwCuDYOrnApSIa-1" source="KA0_QR6ETRWi7qy15WYJ-13" target="KA0_QR6ETRWi7qy15WYJ-3" edge="1">
                    <mxGeometry width="160" relative="1" as="geometry">
                        <mxPoint x="357" y="591" as="sourcePoint"/>
                        <mxPoint x="517" y="591" as="targetPoint"/>
                    </mxGeometry>
                </mxCell>
                <mxCell id="KA0_QR6ETRWi7qy15WYJ-16" value="" style="endArrow=block;html=1;rounded=0;align=center;verticalAlign=bottom;endFill=0;labelBackgroundColor=none;endSize=8;exitX=0.5;exitY=0;exitDx=0;exitDy=0;exitPerimeter=0;" parent="GfGqxMvwCuDYOrnApSIa-1" source="KA0_QR6ETRWi7qy15WYJ-3" edge="1">
                    <mxGeometry relative="1" as="geometry">
                        <mxPoint x="-46" y="652" as="sourcePoint"/>
                        <mxPoint x="-19" y="572" as="targetPoint"/>
                    </mxGeometry>
                </mxCell>
                <mxCell id="KA0_QR6ETRWi7qy15WYJ-17" value="" style="resizable=0;html=1;align=center;verticalAlign=top;labelBackgroundColor=none;" parent="KA0_QR6ETRWi7qy15WYJ-16" connectable="0" vertex="1">
                    <mxGeometry relative="1" as="geometry"/>
                </mxCell>
                <mxCell id="KA0_QR6ETRWi7qy15WYJ-18" value="Medicine16" style="text;html=1;strokeColor=none;fillColor=none;align=center;verticalAlign=middle;whiteSpace=wrap;rounded=0;" parent="GfGqxMvwCuDYOrnApSIa-1" vertex="1">
                    <mxGeometry x="274" y="374" width="40" height="20" as="geometry"/>
                </mxCell>
                <mxCell id="6dWUYyxlM9GWvyayEn2V-0" value="Admin" style="shape=umlActor;verticalLabelPosition=bottom;verticalAlign=top;html=1;" vertex="1" parent="GfGqxMvwCuDYOrnApSIa-1">
                    <mxGeometry x="697" y="1106" width="30" height="60" as="geometry"/>
                </mxCell>
                <mxCell id="6dWUYyxlM9GWvyayEn2V-1" value="Doctor" style="shape=umlActor;verticalLabelPosition=bottom;verticalAlign=top;html=1;" vertex="1" parent="GfGqxMvwCuDYOrnApSIa-1">
                    <mxGeometry x="697" y="954" width="30" height="60" as="geometry"/>
                </mxCell>
                <mxCell id="6dWUYyxlM9GWvyayEn2V-2" value="Thêm hồ sơ đến thăm" style="ellipse;whiteSpace=wrap;html=1;" vertex="1" parent="GfGqxMvwCuDYOrnApSIa-1">
                    <mxGeometry x="855" y="912" width="140" height="70" as="geometry"/>
                </mxCell>
                <mxCell id="6dWUYyxlM9GWvyayEn2V-3" value="Xem hồ sơ đến thăm" style="ellipse;whiteSpace=wrap;html=1;" vertex="1" parent="GfGqxMvwCuDYOrnApSIa-1">
                    <mxGeometry x="855" y="996" width="140" height="70" as="geometry"/>
                </mxCell>
                <mxCell id="6dWUYyxlM9GWvyayEn2V-4" value="Chỉnh sửa hồ sơ đến thăm" style="ellipse;whiteSpace=wrap;html=1;" vertex="1" parent="GfGqxMvwCuDYOrnApSIa-1">
                    <mxGeometry x="855" y="1079" width="140" height="70" as="geometry"/>
                </mxCell>
                <mxCell id="6dWUYyxlM9GWvyayEn2V-5" value="Xóa hồ sơ đến thăm" style="ellipse;whiteSpace=wrap;html=1;" vertex="1" parent="GfGqxMvwCuDYOrnApSIa-1">
                    <mxGeometry x="855" y="1162" width="140" height="70" as="geometry"/>
                </mxCell>
                <mxCell id="6dWUYyxlM9GWvyayEn2V-6" value="Thêm hồ sơ đơn thuốc" style="ellipse;whiteSpace=wrap;html=1;" vertex="1" parent="GfGqxMvwCuDYOrnApSIa-1">
                    <mxGeometry x="1067" y="915" width="140" height="70" as="geometry"/>
                </mxCell>
                <mxCell id="6dWUYyxlM9GWvyayEn2V-7" value="Chỉnh sửa hồ sơ đơn thuốc" style="ellipse;whiteSpace=wrap;html=1;" vertex="1" parent="GfGqxMvwCuDYOrnApSIa-1">
                    <mxGeometry x="1063" y="996" width="140" height="70" as="geometry"/>
                </mxCell>
                <mxCell id="6dWUYyxlM9GWvyayEn2V-8" value="Xóa hồ sơ đơn thuốc" style="ellipse;whiteSpace=wrap;html=1;" vertex="1" parent="GfGqxMvwCuDYOrnApSIa-1">
                    <mxGeometry x="1063" y="1087" width="140" height="70" as="geometry"/>
                </mxCell>
                <mxCell id="6dWUYyxlM9GWvyayEn2V-9" value="" style="endArrow=none;startArrow=none;endFill=0;startFill=0;endSize=8;html=1;verticalAlign=bottom;labelBackgroundColor=none;strokeWidth=3;exitX=1;exitY=0.3333333333333333;exitDx=0;exitDy=0;exitPerimeter=0;entryX=0;entryY=0.5;entryDx=0;entryDy=0;" edge="1" parent="GfGqxMvwCuDYOrnApSIa-1" source="6dWUYyxlM9GWvyayEn2V-1" target="6dWUYyxlM9GWvyayEn2V-2">
                    <mxGeometry width="160" relative="1" as="geometry">
                        <mxPoint x="747" y="993" as="sourcePoint"/>
                        <mxPoint x="907" y="993" as="targetPoint"/>
                    </mxGeometry>
                </mxCell>
                <mxCell id="6dWUYyxlM9GWvyayEn2V-10" value="" style="endArrow=none;startArrow=none;endFill=0;startFill=0;endSize=8;html=1;verticalAlign=bottom;labelBackgroundColor=none;strokeWidth=3;exitX=1;exitY=0.3333333333333333;exitDx=0;exitDy=0;exitPerimeter=0;entryX=0;entryY=0.5;entryDx=0;entryDy=0;" edge="1" parent="GfGqxMvwCuDYOrnApSIa-1" source="6dWUYyxlM9GWvyayEn2V-1" target="6dWUYyxlM9GWvyayEn2V-3">
                    <mxGeometry width="160" relative="1" as="geometry">
                        <mxPoint x="732" y="1008" as="sourcePoint"/>
                        <mxPoint x="892" y="1008" as="targetPoint"/>
                    </mxGeometry>
                </mxCell>
                <mxCell id="6dWUYyxlM9GWvyayEn2V-11" value="" style="endArrow=none;startArrow=none;endFill=0;startFill=0;endSize=8;html=1;verticalAlign=bottom;labelBackgroundColor=none;strokeWidth=3;exitX=1;exitY=0.3333333333333333;exitDx=0;exitDy=0;exitPerimeter=0;entryX=0;entryY=0.5;entryDx=0;entryDy=0;" edge="1" parent="GfGqxMvwCuDYOrnApSIa-1" source="6dWUYyxlM9GWvyayEn2V-1" target="6dWUYyxlM9GWvyayEn2V-4">
                    <mxGeometry width="160" relative="1" as="geometry">
                        <mxPoint x="984" y="993" as="sourcePoint"/>
                        <mxPoint x="1144" y="993" as="targetPoint"/>
                    </mxGeometry>
                </mxCell>
                <mxCell id="6dWUYyxlM9GWvyayEn2V-12" value="" style="endArrow=none;startArrow=none;endFill=0;startFill=0;endSize=8;html=1;verticalAlign=bottom;labelBackgroundColor=none;strokeWidth=3;exitX=1;exitY=0.3333333333333333;exitDx=0;exitDy=0;exitPerimeter=0;entryX=0;entryY=0.5;entryDx=0;entryDy=0;" edge="1" parent="GfGqxMvwCuDYOrnApSIa-1" source="6dWUYyxlM9GWvyayEn2V-1" target="6dWUYyxlM9GWvyayEn2V-5">
                    <mxGeometry width="160" relative="1" as="geometry">
                        <mxPoint x="984" y="993" as="sourcePoint"/>
                        <mxPoint x="1144" y="993" as="targetPoint"/>
                    </mxGeometry>
                </mxCell>
                <mxCell id="6dWUYyxlM9GWvyayEn2V-13" value="&amp;lt;&amp;lt;include&amp;gt;&amp;gt;" style="html=1;verticalAlign=bottom;labelBackgroundColor=none;endArrow=open;endFill=0;dashed=1;exitX=1;exitY=0.5;exitDx=0;exitDy=0;entryX=0;entryY=0.457;entryDx=0;entryDy=0;entryPerimeter=0;" edge="1" parent="GfGqxMvwCuDYOrnApSIa-1" source="6dWUYyxlM9GWvyayEn2V-2" target="6dWUYyxlM9GWvyayEn2V-6">
                    <mxGeometry width="160" relative="1" as="geometry">
                        <mxPoint x="963" y="923" as="sourcePoint"/>
                        <mxPoint x="1123" y="923" as="targetPoint"/>
                    </mxGeometry>
                </mxCell>
                <mxCell id="6dWUYyxlM9GWvyayEn2V-14" value="&amp;lt;&amp;lt;extend&amp;gt;&amp;gt;" style="html=1;verticalAlign=bottom;labelBackgroundColor=none;endArrow=open;endFill=0;dashed=1;entryX=1;entryY=0;entryDx=0;entryDy=0;exitX=0;exitY=0.5;exitDx=0;exitDy=0;" edge="1" parent="GfGqxMvwCuDYOrnApSIa-1" source="6dWUYyxlM9GWvyayEn2V-7" target="6dWUYyxlM9GWvyayEn2V-4">
                    <mxGeometry width="160" relative="1" as="geometry">
                        <mxPoint x="1031" y="984" as="sourcePoint"/>
                        <mxPoint x="1149" y="993" as="targetPoint"/>
                    </mxGeometry>
                </mxCell>
                <mxCell id="6dWUYyxlM9GWvyayEn2V-15" value="&amp;lt;&amp;lt;extend&amp;gt;&amp;gt;" style="html=1;verticalAlign=bottom;labelBackgroundColor=none;endArrow=open;endFill=0;dashed=1;entryX=1;entryY=0.5;entryDx=0;entryDy=0;exitX=0;exitY=0.5;exitDx=0;exitDy=0;" edge="1" parent="GfGqxMvwCuDYOrnApSIa-1" source="6dWUYyxlM9GWvyayEn2V-8" target="6dWUYyxlM9GWvyayEn2V-4">
                    <mxGeometry width="160" relative="1" as="geometry">
                        <mxPoint x="989" y="993" as="sourcePoint"/>
                        <mxPoint x="1149" y="993" as="targetPoint"/>
                    </mxGeometry>
                </mxCell>
                <mxCell id="6dWUYyxlM9GWvyayEn2V-16" value="" style="endArrow=none;startArrow=none;endFill=0;startFill=0;endSize=8;html=1;verticalAlign=bottom;labelBackgroundColor=none;strokeWidth=3;exitX=1;exitY=0.3333333333333333;exitDx=0;exitDy=0;exitPerimeter=0;entryX=0;entryY=0.5;entryDx=0;entryDy=0;" edge="1" parent="GfGqxMvwCuDYOrnApSIa-1" source="6dWUYyxlM9GWvyayEn2V-0" target="6dWUYyxlM9GWvyayEn2V-2">
                    <mxGeometry width="160" relative="1" as="geometry">
                        <mxPoint x="943" y="1007" as="sourcePoint"/>
                        <mxPoint x="1103" y="1007" as="targetPoint"/>
                    </mxGeometry>
                </mxCell>
                <mxCell id="6dWUYyxlM9GWvyayEn2V-17" value="" style="endArrow=none;startArrow=none;endFill=0;startFill=0;endSize=8;html=1;verticalAlign=bottom;labelBackgroundColor=none;strokeWidth=3;exitX=1;exitY=0.3333333333333333;exitDx=0;exitDy=0;exitPerimeter=0;entryX=0;entryY=0.5;entryDx=0;entryDy=0;" edge="1" parent="GfGqxMvwCuDYOrnApSIa-1" source="6dWUYyxlM9GWvyayEn2V-0" target="6dWUYyxlM9GWvyayEn2V-3">
                    <mxGeometry width="160" relative="1" as="geometry">
                        <mxPoint x="943" y="1007" as="sourcePoint"/>
                        <mxPoint x="1103" y="1007" as="targetPoint"/>
                    </mxGeometry>
                </mxCell>
                <mxCell id="6dWUYyxlM9GWvyayEn2V-18" value="" style="endArrow=none;startArrow=none;endFill=0;startFill=0;endSize=8;html=1;verticalAlign=bottom;labelBackgroundColor=none;strokeWidth=3;exitX=1;exitY=0.3333333333333333;exitDx=0;exitDy=0;exitPerimeter=0;entryX=0;entryY=0.5;entryDx=0;entryDy=0;" edge="1" parent="GfGqxMvwCuDYOrnApSIa-1" source="6dWUYyxlM9GWvyayEn2V-0" target="6dWUYyxlM9GWvyayEn2V-4">
                    <mxGeometry width="160" relative="1" as="geometry">
                        <mxPoint x="943" y="1007" as="sourcePoint"/>
                        <mxPoint x="1103" y="1007" as="targetPoint"/>
                    </mxGeometry>
                </mxCell>
                <mxCell id="6dWUYyxlM9GWvyayEn2V-19" value="" style="endArrow=none;startArrow=none;endFill=0;startFill=0;endSize=8;html=1;verticalAlign=bottom;labelBackgroundColor=none;strokeWidth=3;exitX=1;exitY=0.3333333333333333;exitDx=0;exitDy=0;exitPerimeter=0;entryX=0;entryY=0.5;entryDx=0;entryDy=0;" edge="1" parent="GfGqxMvwCuDYOrnApSIa-1" source="6dWUYyxlM9GWvyayEn2V-0" target="6dWUYyxlM9GWvyayEn2V-5">
                    <mxGeometry width="160" relative="1" as="geometry">
                        <mxPoint x="943" y="1007" as="sourcePoint"/>
                        <mxPoint x="1103" y="1007" as="targetPoint"/>
                    </mxGeometry>
                </mxCell>
                <mxCell id="6dWUYyxlM9GWvyayEn2V-20" value="Quản lý lịch sử thăm khám bệnh nhân " style="text;align=center;fontStyle=1;verticalAlign=middle;spacingLeft=3;spacingRight=3;strokeColor=none;rotatable=0;points=[[0,0.5],[1,0.5]];portConstraint=eastwest;" vertex="1" parent="GfGqxMvwCuDYOrnApSIa-1">
                    <mxGeometry x="913" y="1253" width="80" height="26" as="geometry"/>
                </mxCell>
                <mxCell id="nks8BaE6GxC6ngmw0A5t-0" value="&lt;div style=&quot;text-align: center&quot;&gt;&lt;span&gt;&lt;b&gt;Biểu đồ ca&lt;/b&gt;&lt;/span&gt;&lt;/div&gt;" style="shape=umlFrame;whiteSpace=wrap;html=1;width=82;height=23;boundedLbl=1;verticalAlign=middle;align=left;spacingLeft=5;" vertex="1" parent="GfGqxMvwCuDYOrnApSIa-1">
                    <mxGeometry x="-123" y="954" width="739" height="467" as="geometry"/>
                </mxCell>
                <mxCell id="nks8BaE6GxC6ngmw0A5t-1" value="" style="rounded=0;whiteSpace=wrap;html=1;" vertex="1" parent="GfGqxMvwCuDYOrnApSIa-1">
                    <mxGeometry x="102" y="1003.5" width="214" height="368" as="geometry"/>
                </mxCell>
                <mxCell id="nks8BaE6GxC6ngmw0A5t-2" value="Nhân viên" style="shape=umlActor;verticalLabelPosition=bottom;verticalAlign=top;html=1;" vertex="1" parent="GfGqxMvwCuDYOrnApSIa-1">
                    <mxGeometry x="-85" y="1139" width="30" height="60" as="geometry"/>
                </mxCell>
                <mxCell id="nks8BaE6GxC6ngmw0A5t-3" value="Quản trị viên" style="shape=umlActor;verticalLabelPosition=bottom;verticalAlign=top;html=1;" vertex="1" parent="GfGqxMvwCuDYOrnApSIa-1">
                    <mxGeometry x="-85" y="1284" width="30" height="60" as="geometry"/>
                </mxCell>
                <mxCell id="nks8BaE6GxC6ngmw0A5t-4" value="Thêm thông tin thuốc" style="ellipse;whiteSpace=wrap;html=1;" vertex="1" parent="GfGqxMvwCuDYOrnApSIa-1">
                    <mxGeometry x="139" y="1031" width="140" height="70" as="geometry"/>
                </mxCell>
                <mxCell id="nks8BaE6GxC6ngmw0A5t-5" value="Xem chi tiêt sản phẩm" style="ellipse;whiteSpace=wrap;html=1;" vertex="1" parent="GfGqxMvwCuDYOrnApSIa-1">
                    <mxGeometry x="142" y="1114" width="140" height="70" as="geometry"/>
                </mxCell>
                <mxCell id="nks8BaE6GxC6ngmw0A5t-6" value="Chỉnh sửa chi tiết sản phẩm" style="ellipse;whiteSpace=wrap;html=1;" vertex="1" parent="GfGqxMvwCuDYOrnApSIa-1">
                    <mxGeometry x="142" y="1199" width="140" height="70" as="geometry"/>
                </mxCell>
                <mxCell id="nks8BaE6GxC6ngmw0A5t-7" value="Xóa sản phẩm" style="ellipse;whiteSpace=wrap;html=1;" vertex="1" parent="GfGqxMvwCuDYOrnApSIa-1">
                    <mxGeometry x="142" y="1281" width="140" height="70" as="geometry"/>
                </mxCell>
                <mxCell id="nks8BaE6GxC6ngmw0A5t-8" value="" style="endArrow=none;startArrow=none;endFill=0;startFill=0;endSize=8;html=1;verticalAlign=bottom;labelBackgroundColor=none;strokeWidth=3;exitX=1;exitY=0.3333333333333333;exitDx=0;exitDy=0;exitPerimeter=0;entryX=0;entryY=0.5;entryDx=0;entryDy=0;" edge="1" parent="GfGqxMvwCuDYOrnApSIa-1" source="nks8BaE6GxC6ngmw0A5t-2" target="nks8BaE6GxC6ngmw0A5t-4">
                    <mxGeometry width="160" relative="1" as="geometry">
                        <mxPoint x="260" y="788" as="sourcePoint"/>
                        <mxPoint x="420" y="788" as="targetPoint"/>
                    </mxGeometry>
                </mxCell>
                <mxCell id="nks8BaE6GxC6ngmw0A5t-9" value="" style="endArrow=none;startArrow=none;endFill=0;startFill=0;endSize=8;html=1;verticalAlign=bottom;labelBackgroundColor=none;strokeWidth=3;exitX=1;exitY=0.3333333333333333;exitDx=0;exitDy=0;exitPerimeter=0;entryX=0;entryY=0.5;entryDx=0;entryDy=0;" edge="1" parent="GfGqxMvwCuDYOrnApSIa-1" source="nks8BaE6GxC6ngmw0A5t-2" target="nks8BaE6GxC6ngmw0A5t-5">
                    <mxGeometry width="160" relative="1" as="geometry">
                        <mxPoint x="260" y="788" as="sourcePoint"/>
                        <mxPoint x="420" y="788" as="targetPoint"/>
                    </mxGeometry>
                </mxCell>
                <mxCell id="nks8BaE6GxC6ngmw0A5t-10" value="" style="endArrow=none;startArrow=none;endFill=0;startFill=0;endSize=8;html=1;verticalAlign=bottom;labelBackgroundColor=none;strokeWidth=3;exitX=1;exitY=0.3333333333333333;exitDx=0;exitDy=0;exitPerimeter=0;entryX=0;entryY=0.5;entryDx=0;entryDy=0;" edge="1" parent="GfGqxMvwCuDYOrnApSIa-1" source="nks8BaE6GxC6ngmw0A5t-2" target="nks8BaE6GxC6ngmw0A5t-6">
                    <mxGeometry width="160" relative="1" as="geometry">
                        <mxPoint x="260" y="788" as="sourcePoint"/>
                        <mxPoint x="420" y="788" as="targetPoint"/>
                    </mxGeometry>
                </mxCell>
                <mxCell id="nks8BaE6GxC6ngmw0A5t-11" value="" style="endArrow=none;startArrow=none;endFill=0;startFill=0;endSize=8;html=1;verticalAlign=bottom;labelBackgroundColor=none;strokeWidth=3;exitX=1;exitY=0.3333333333333333;exitDx=0;exitDy=0;exitPerimeter=0;entryX=0;entryY=0.5;entryDx=0;entryDy=0;" edge="1" parent="GfGqxMvwCuDYOrnApSIa-1" source="nks8BaE6GxC6ngmw0A5t-2" target="nks8BaE6GxC6ngmw0A5t-7">
                    <mxGeometry width="160" relative="1" as="geometry">
                        <mxPoint x="260" y="788" as="sourcePoint"/>
                        <mxPoint x="420" y="788" as="targetPoint"/>
                    </mxGeometry>
                </mxCell>
                <mxCell id="nks8BaE6GxC6ngmw0A5t-12" value="Medicine16" style="text;html=1;strokeColor=none;fillColor=none;align=center;verticalAlign=middle;whiteSpace=wrap;rounded=0;" vertex="1" parent="GfGqxMvwCuDYOrnApSIa-1">
                    <mxGeometry x="186" y="1006" width="40" height="20" as="geometry"/>
                </mxCell>
                <mxCell id="ZCxAUJYwfQbgTQO_Qc_V-0" value="" style="html=1;" vertex="1" parent="GfGqxMvwCuDYOrnApSIa-1">
                    <mxGeometry x="888" y="238" width="463" height="380" as="geometry"/>
                </mxCell>
                <mxCell id="ZCxAUJYwfQbgTQO_Qc_V-1" value="User" style="shape=umlActor;verticalLabelPosition=bottom;verticalAlign=top;html=1;" vertex="1" parent="GfGqxMvwCuDYOrnApSIa-1">
                    <mxGeometry x="725" y="325" width="30" height="60" as="geometry"/>
                </mxCell>
                <mxCell id="ZCxAUJYwfQbgTQO_Qc_V-2" value="Doctor" style="shape=umlActor;verticalLabelPosition=bottom;verticalAlign=top;html=1;" vertex="1" parent="GfGqxMvwCuDYOrnApSIa-1">
                    <mxGeometry x="772" y="323" width="30" height="60" as="geometry"/>
                </mxCell>
                <mxCell id="ZCxAUJYwfQbgTQO_Qc_V-3" value="Admin" style="shape=umlActor;verticalLabelPosition=bottom;verticalAlign=top;html=1;" vertex="1" parent="GfGqxMvwCuDYOrnApSIa-1">
                    <mxGeometry x="772" y="461" width="30" height="60" as="geometry"/>
                </mxCell>
                <mxCell id="ZCxAUJYwfQbgTQO_Qc_V-4" value="Đăng ký bệnh nhân mới" style="ellipse;whiteSpace=wrap;html=1;" vertex="1" parent="GfGqxMvwCuDYOrnApSIa-1">
                    <mxGeometry x="966" y="259" width="140" height="70" as="geometry"/>
                </mxCell>
                <mxCell id="ZCxAUJYwfQbgTQO_Qc_V-5" value="Xem hồ sơ bệnh nhân" style="ellipse;whiteSpace=wrap;html=1;" vertex="1" parent="GfGqxMvwCuDYOrnApSIa-1">
                    <mxGeometry x="963" y="345" width="140" height="70" as="geometry"/>
                </mxCell>
                <mxCell id="ZCxAUJYwfQbgTQO_Qc_V-6" value="Chỉnh sửa hồ sơ bệnh nhân" style="ellipse;whiteSpace=wrap;html=1;" vertex="1" parent="GfGqxMvwCuDYOrnApSIa-1">
                    <mxGeometry x="961" y="431" width="140" height="70" as="geometry"/>
                </mxCell>
                <mxCell id="ZCxAUJYwfQbgTQO_Qc_V-7" value="Xóa hồ sơ bệnh nhân" style="ellipse;whiteSpace=wrap;html=1;" vertex="1" parent="GfGqxMvwCuDYOrnApSIa-1">
                    <mxGeometry x="961" y="521" width="140" height="70" as="geometry"/>
                </mxCell>
                <mxCell id="ZCxAUJYwfQbgTQO_Qc_V-8" value="In thẻ hội viên bệnh nhân" style="ellipse;whiteSpace=wrap;html=1;" vertex="1" parent="GfGqxMvwCuDYOrnApSIa-1">
                    <mxGeometry x="1181" y="261" width="140" height="70" as="geometry"/>
                </mxCell>
                <mxCell id="ZCxAUJYwfQbgTQO_Qc_V-9" value="In báo cáo phòng khám" style="ellipse;whiteSpace=wrap;html=1;" vertex="1" parent="GfGqxMvwCuDYOrnApSIa-1">
                    <mxGeometry x="1175" y="338" width="140" height="70" as="geometry"/>
                </mxCell>
                <mxCell id="ZCxAUJYwfQbgTQO_Qc_V-10" value="In hóa đơn" style="ellipse;whiteSpace=wrap;html=1;" vertex="1" parent="GfGqxMvwCuDYOrnApSIa-1">
                    <mxGeometry x="1175" y="415" width="140" height="70" as="geometry"/>
                </mxCell>
                <mxCell id="ZCxAUJYwfQbgTQO_Qc_V-11" value="" style="endArrow=none;startArrow=none;endFill=0;startFill=0;endSize=8;html=1;verticalAlign=bottom;labelBackgroundColor=none;strokeWidth=3;exitX=1;exitY=0.3333333333333333;exitDx=0;exitDy=0;exitPerimeter=0;entryX=0;entryY=0.5;entryDx=0;entryDy=0;" edge="1" parent="GfGqxMvwCuDYOrnApSIa-1" source="ZCxAUJYwfQbgTQO_Qc_V-2" target="ZCxAUJYwfQbgTQO_Qc_V-4">
                    <mxGeometry width="160" relative="1" as="geometry">
                        <mxPoint x="955" y="456" as="sourcePoint"/>
                        <mxPoint x="1115" y="456" as="targetPoint"/>
                    </mxGeometry>
                </mxCell>
                <mxCell id="ZCxAUJYwfQbgTQO_Qc_V-12" value="" style="endArrow=none;startArrow=none;endFill=0;startFill=0;endSize=8;html=1;verticalAlign=bottom;labelBackgroundColor=none;strokeWidth=3;exitX=1;exitY=0.3333333333333333;exitDx=0;exitDy=0;exitPerimeter=0;entryX=0;entryY=0.5;entryDx=0;entryDy=0;" edge="1" parent="GfGqxMvwCuDYOrnApSIa-1" source="ZCxAUJYwfQbgTQO_Qc_V-2" target="ZCxAUJYwfQbgTQO_Qc_V-5">
                    <mxGeometry width="160" relative="1" as="geometry">
                        <mxPoint x="955" y="456" as="sourcePoint"/>
                        <mxPoint x="1115" y="456" as="targetPoint"/>
                    </mxGeometry>
                </mxCell>
                <mxCell id="ZCxAUJYwfQbgTQO_Qc_V-13" value="" style="endArrow=none;startArrow=none;endFill=0;startFill=0;endSize=8;html=1;verticalAlign=bottom;labelBackgroundColor=none;strokeWidth=3;exitX=1;exitY=0.3333333333333333;exitDx=0;exitDy=0;exitPerimeter=0;entryX=0;entryY=0.5;entryDx=0;entryDy=0;" edge="1" parent="GfGqxMvwCuDYOrnApSIa-1" source="ZCxAUJYwfQbgTQO_Qc_V-2" target="ZCxAUJYwfQbgTQO_Qc_V-6">
                    <mxGeometry width="160" relative="1" as="geometry">
                        <mxPoint x="955" y="456" as="sourcePoint"/>
                        <mxPoint x="1115" y="456" as="targetPoint"/>
                    </mxGeometry>
                </mxCell>
                <mxCell id="ZCxAUJYwfQbgTQO_Qc_V-14" value="" style="endArrow=none;startArrow=none;endFill=0;startFill=0;endSize=8;html=1;verticalAlign=bottom;labelBackgroundColor=none;strokeWidth=3;exitX=1;exitY=0.3333333333333333;exitDx=0;exitDy=0;exitPerimeter=0;entryX=0;entryY=0.5;entryDx=0;entryDy=0;" edge="1" parent="GfGqxMvwCuDYOrnApSIa-1" source="ZCxAUJYwfQbgTQO_Qc_V-3" target="ZCxAUJYwfQbgTQO_Qc_V-7">
                    <mxGeometry width="160" relative="1" as="geometry">
                        <mxPoint x="913" y="456" as="sourcePoint"/>
                        <mxPoint x="1073" y="456" as="targetPoint"/>
                    </mxGeometry>
                </mxCell>
                <mxCell id="ZCxAUJYwfQbgTQO_Qc_V-15" value="" style="endArrow=none;startArrow=none;endFill=0;startFill=0;endSize=8;html=1;verticalAlign=bottom;labelBackgroundColor=none;strokeWidth=3;exitX=1;exitY=0.3333333333333333;exitDx=0;exitDy=0;exitPerimeter=0;entryX=0;entryY=0.5;entryDx=0;entryDy=0;" edge="1" parent="GfGqxMvwCuDYOrnApSIa-1" source="ZCxAUJYwfQbgTQO_Qc_V-3" target="ZCxAUJYwfQbgTQO_Qc_V-6">
                    <mxGeometry width="160" relative="1" as="geometry">
                        <mxPoint x="913" y="456" as="sourcePoint"/>
                        <mxPoint x="1073" y="456" as="targetPoint"/>
                    </mxGeometry>
                </mxCell>
                <mxCell id="ZCxAUJYwfQbgTQO_Qc_V-16" value="" style="endArrow=none;startArrow=none;endFill=0;startFill=0;endSize=8;html=1;verticalAlign=bottom;labelBackgroundColor=none;strokeWidth=3;exitX=1;exitY=0.3333333333333333;exitDx=0;exitDy=0;exitPerimeter=0;entryX=0;entryY=0.5;entryDx=0;entryDy=0;" edge="1" parent="GfGqxMvwCuDYOrnApSIa-1" source="ZCxAUJYwfQbgTQO_Qc_V-3" target="ZCxAUJYwfQbgTQO_Qc_V-5">
                    <mxGeometry width="160" relative="1" as="geometry">
                        <mxPoint x="913" y="456" as="sourcePoint"/>
                        <mxPoint x="1073" y="456" as="targetPoint"/>
                    </mxGeometry>
                </mxCell>
                <mxCell id="ZCxAUJYwfQbgTQO_Qc_V-17" value="" style="endArrow=none;startArrow=none;endFill=0;startFill=0;endSize=8;html=1;verticalAlign=bottom;labelBackgroundColor=none;strokeWidth=3;exitX=1;exitY=0.3333333333333333;exitDx=0;exitDy=0;exitPerimeter=0;entryX=0;entryY=0.5;entryDx=0;entryDy=0;" edge="1" parent="GfGqxMvwCuDYOrnApSIa-1" source="ZCxAUJYwfQbgTQO_Qc_V-3" target="ZCxAUJYwfQbgTQO_Qc_V-4">
                    <mxGeometry width="160" relative="1" as="geometry">
                        <mxPoint x="913" y="456" as="sourcePoint"/>
                        <mxPoint x="1073" y="456" as="targetPoint"/>
                    </mxGeometry>
                </mxCell>
                <mxCell id="ZCxAUJYwfQbgTQO_Qc_V-18" value="&amp;lt;&amp;lt;extend&amp;gt;&amp;gt;" style="html=1;verticalAlign=bottom;labelBackgroundColor=none;endArrow=open;endFill=0;dashed=1;exitX=0;exitY=0.5;exitDx=0;exitDy=0;entryX=1;entryY=1;entryDx=0;entryDy=0;exitPerimeter=0;" edge="1" parent="GfGqxMvwCuDYOrnApSIa-1" source="ZCxAUJYwfQbgTQO_Qc_V-10" target="ZCxAUJYwfQbgTQO_Qc_V-5">
                    <mxGeometry width="160" relative="1" as="geometry">
                        <mxPoint x="992" y="500" as="sourcePoint"/>
                        <mxPoint x="1152" y="500" as="targetPoint"/>
                    </mxGeometry>
                </mxCell>
                <mxCell id="ZCxAUJYwfQbgTQO_Qc_V-19" value="&amp;lt;&amp;lt;extend&amp;gt;&amp;gt;" style="html=1;verticalAlign=bottom;labelBackgroundColor=none;endArrow=open;endFill=0;dashed=1;exitX=0;exitY=1;exitDx=0;exitDy=0;entryX=0.786;entryY=0.014;entryDx=0;entryDy=0;entryPerimeter=0;" edge="1" parent="GfGqxMvwCuDYOrnApSIa-1" source="ZCxAUJYwfQbgTQO_Qc_V-8" target="ZCxAUJYwfQbgTQO_Qc_V-5">
                    <mxGeometry width="160" relative="1" as="geometry">
                        <mxPoint x="1065" y="448.5" as="sourcePoint"/>
                        <mxPoint x="960" y="367.5" as="targetPoint"/>
                    </mxGeometry>
                </mxCell>
                <mxCell id="ZCxAUJYwfQbgTQO_Qc_V-20" value="&amp;lt;&amp;lt;extend&amp;gt;&amp;gt;" style="html=1;verticalAlign=bottom;labelBackgroundColor=none;endArrow=open;endFill=0;dashed=1;exitX=0;exitY=0.5;exitDx=0;exitDy=0;" edge="1" parent="GfGqxMvwCuDYOrnApSIa-1" source="ZCxAUJYwfQbgTQO_Qc_V-9" target="ZCxAUJYwfQbgTQO_Qc_V-5">
                    <mxGeometry width="160" relative="1" as="geometry">
                        <mxPoint x="1123" y="452" as="sourcePoint"/>
                        <mxPoint x="979" y="394" as="targetPoint"/>
                    </mxGeometry>
                </mxCell>
                <mxCell id="ZCxAUJYwfQbgTQO_Qc_V-21" value="&lt;span style=&quot;font-weight: 700 ; text-align: center&quot;&gt;Biểu đồ ca&lt;/span&gt;" style="shape=umlFrame;whiteSpace=wrap;html=1;width=120;height=30;boundedLbl=1;verticalAlign=middle;align=left;spacingLeft=5;" vertex="1" parent="GfGqxMvwCuDYOrnApSIa-1">
                    <mxGeometry x="688" y="189" width="732" height="468" as="geometry"/>
                </mxCell>
                <mxCell id="8SRi8og-J3FwQAxNbXJe-0" value="Quản lý lịch hẹn bênh nhân" style="text;align=center;fontStyle=1;verticalAlign=middle;spacingLeft=3;spacingRight=3;strokeColor=none;rotatable=0;points=[[0,0.5],[1,0.5]];portConstraint=eastwest;" vertex="1" parent="GfGqxMvwCuDYOrnApSIa-1">
                    <mxGeometry x="1564" y="1248" width="80" height="26" as="geometry"/>
                </mxCell>
                <mxCell id="8SRi8og-J3FwQAxNbXJe-1" value="Admin" style="shape=umlActor;verticalLabelPosition=bottom;verticalAlign=top;html=1;" vertex="1" parent="GfGqxMvwCuDYOrnApSIa-1">
                    <mxGeometry x="1326" y="933" width="30" height="60" as="geometry"/>
                </mxCell>
                <mxCell id="8SRi8og-J3FwQAxNbXJe-2" value="Doctor" style="shape=umlActor;verticalLabelPosition=bottom;verticalAlign=top;html=1;" vertex="1" parent="GfGqxMvwCuDYOrnApSIa-1">
                    <mxGeometry x="1388" y="933" width="30" height="60" as="geometry"/>
                </mxCell>
                <mxCell id="8SRi8og-J3FwQAxNbXJe-3" value="Staff" style="shape=umlActor;verticalLabelPosition=bottom;verticalAlign=top;html=1;" vertex="1" parent="GfGqxMvwCuDYOrnApSIa-1">
                    <mxGeometry x="1452" y="936" width="30" height="60" as="geometry"/>
                </mxCell>
                <mxCell id="8SRi8og-J3FwQAxNbXJe-4" value="Thêm lịch hẹn mới" style="ellipse;whiteSpace=wrap;html=1;" vertex="1" parent="GfGqxMvwCuDYOrnApSIa-1">
                    <mxGeometry x="1567" y="871" width="140" height="70" as="geometry"/>
                </mxCell>
                <mxCell id="8SRi8og-J3FwQAxNbXJe-5" value="Xem chi tiết lịch hẹn" style="ellipse;whiteSpace=wrap;html=1;" vertex="1" parent="GfGqxMvwCuDYOrnApSIa-1">
                    <mxGeometry x="1567" y="966" width="140" height="70" as="geometry"/>
                </mxCell>
                <mxCell id="8SRi8og-J3FwQAxNbXJe-6" value="Chỉnh sửa lịch hẹn" style="ellipse;whiteSpace=wrap;html=1;" vertex="1" parent="GfGqxMvwCuDYOrnApSIa-1">
                    <mxGeometry x="1567" y="1060" width="140" height="70" as="geometry"/>
                </mxCell>
                <mxCell id="8SRi8og-J3FwQAxNbXJe-7" value="Xóa lịch hẹn" style="ellipse;whiteSpace=wrap;html=1;" vertex="1" parent="GfGqxMvwCuDYOrnApSIa-1">
                    <mxGeometry x="1567" y="1154" width="140" height="70" as="geometry"/>
                </mxCell>
                <mxCell id="8SRi8og-J3FwQAxNbXJe-8" value="" style="endArrow=none;startArrow=none;endFill=0;startFill=0;endSize=8;html=1;verticalAlign=bottom;labelBackgroundColor=none;strokeWidth=3;exitX=1;exitY=0.3333333333333333;exitDx=0;exitDy=0;exitPerimeter=0;entryX=0;entryY=0.5;entryDx=0;entryDy=0;" edge="1" parent="GfGqxMvwCuDYOrnApSIa-1" source="8SRi8og-J3FwQAxNbXJe-3" target="8SRi8og-J3FwQAxNbXJe-4">
                    <mxGeometry width="160" relative="1" as="geometry">
                        <mxPoint x="1574" y="1088" as="sourcePoint"/>
                        <mxPoint x="1734" y="1088" as="targetPoint"/>
                    </mxGeometry>
                </mxCell>
                <mxCell id="8SRi8og-J3FwQAxNbXJe-9" value="" style="endArrow=none;startArrow=none;endFill=0;startFill=0;endSize=8;html=1;verticalAlign=bottom;labelBackgroundColor=none;strokeWidth=3;exitX=1;exitY=0.3333333333333333;exitDx=0;exitDy=0;exitPerimeter=0;entryX=0;entryY=0.5;entryDx=0;entryDy=0;" edge="1" parent="GfGqxMvwCuDYOrnApSIa-1" source="8SRi8og-J3FwQAxNbXJe-3" target="8SRi8og-J3FwQAxNbXJe-5">
                    <mxGeometry width="160" relative="1" as="geometry">
                        <mxPoint x="1574" y="1088" as="sourcePoint"/>
                        <mxPoint x="1569" y="1000" as="targetPoint"/>
                    </mxGeometry>
                </mxCell>
                <mxCell id="8SRi8og-J3FwQAxNbXJe-10" value="" style="endArrow=none;startArrow=none;endFill=0;startFill=0;endSize=8;html=1;verticalAlign=bottom;labelBackgroundColor=none;strokeWidth=3;exitX=1;exitY=0.3333333333333333;exitDx=0;exitDy=0;exitPerimeter=0;entryX=0;entryY=0.5;entryDx=0;entryDy=0;" edge="1" parent="GfGqxMvwCuDYOrnApSIa-1" source="8SRi8og-J3FwQAxNbXJe-3" target="8SRi8og-J3FwQAxNbXJe-6">
                    <mxGeometry width="160" relative="1" as="geometry">
                        <mxPoint x="1574" y="1088" as="sourcePoint"/>
                        <mxPoint x="1734" y="1088" as="targetPoint"/>
                    </mxGeometry>
                </mxCell>
                <mxCell id="8SRi8og-J3FwQAxNbXJe-11" value="" style="endArrow=none;startArrow=none;endFill=0;startFill=0;endSize=8;html=1;verticalAlign=bottom;labelBackgroundColor=none;strokeWidth=3;exitX=1;exitY=0.3333333333333333;exitDx=0;exitDy=0;exitPerimeter=0;entryX=0;entryY=0.5;entryDx=0;entryDy=0;" edge="1" parent="GfGqxMvwCuDYOrnApSIa-1" source="8SRi8og-J3FwQAxNbXJe-3" target="8SRi8og-J3FwQAxNbXJe-7">
                    <mxGeometry width="160" relative="1" as="geometry">
                        <mxPoint x="1574" y="1088" as="sourcePoint"/>
                        <mxPoint x="1734" y="1088" as="targetPoint"/>
                    </mxGeometry>
                </mxCell>
            </root>
        </mxGraphModel>
    </diagram>
</mxfile>